<?xml version="1.0" encoding="UTF-8"?>
<!DOCTYPE svg PUBLIC "-//W3C//DTD SVG 1.1//EN" "http://www.w3.org/Graphics/SVG/1.1/DTD/svg11.dtd">
<!-- Creator: CorelDRAW 2020 (64-Bit) -->
<svg xmlns="http://www.w3.org/2000/svg" xml:space="preserve" width="1.9685in" height="1.04244in" version="1.1" style="shape-rendering:geometricPrecision; text-rendering:geometricPrecision; image-rendering:optimizeQuality; fill-rule:evenodd; clip-rule:evenodd"
viewBox="0 0 1968.52 1042.45"
 xmlns:xlink="http://www.w3.org/1999/xlink"
 xmlns:xodm="http://www.corel.com/coreldraw/odm/2003">
 <defs>
  <style type="text/css">
   <![CDATA[
    .fil0 {fill:#ED3237}
   ]]>
  </style>
 </defs>
 <g id="Layer_x0020_1">
  <metadata id="CorelCorpID_0Corel-Layer"/>
  <path class="fil0" d="M171.22 249c-21.87,-15.35 -65.49,0.81 -44.18,33.36 14.95,23.84 41.11,6.02 33.2,41.46 -8.35,37.39 -80.63,40.93 -110.89,26.45 -12.9,-6.18 -14.89,-10.65 -18.65,-28.63 16.52,-1.35 18.46,19.72 43.36,8.11 25.76,-12.04 18.63,-60.48 -14.91,-60.48 -56.86,0 -59.18,73.02 -39.84,101.19 42.31,61.62 140.17,43.09 163.55,-36.91 6.53,-22.34 9.29,-69.8 -11.66,-84.55l0.02 0zm590.88 59.15c57.9,68.67 123.81,69.71 196.36,24.62 9.73,13.73 29.17,13.92 39.17,0.37 70.76,43.75 140.14,44.2 195.76,-24.98 -30.1,-28.51 -57.78,-42.5 -88.88,-44.5 15.23,-21.1 23.19,-46.19 25.98,-80.24 -30.46,-3.17 -56.45,1.61 -77.38,12.71 -5.62,-13.43 -19.08,-22.54 -33.54,-24.79 -6.73,-20.45 -21.76,-44.27 -43.07,-63.36 -22.19,22.19 -34.91,40.01 -42.36,63.7 -13.76,2.72 -26.33,11.57 -31.72,24.43 -20.95,-11.12 -46.92,-15.88 -77.41,-12.7 2.79,34.08 10.74,59.12 25.98,80.24 -52.62,3.39 -87.63,44.5 -88.89,44.5zm377.93 2.78l0.11 0.09c-44.83,49.31 -92.61,47.47 -149.37,8.05 2.19,-1.9 57.14,-1.78 96.7,-36.63 17.74,3.07 35.28,12.26 52.57,28.48l-0.01 0.01zm-85.3 -90.3l38.04 -3.56c-2.63,37.66 -20.04,67.04 -53.04,82.19 0.02,-0.01 0.05,-0.02 0.07,-0.03l-52.81 12.32c0.03,-0.11 67.74,-61.84 67.74,-90.92zm-78.1 -80.93l0.11 -0.11 25.38 32.57c-9.69,2.55 -18.57,8.7 -24.37,19.58 -6.07,-11.39 -15.52,-17.67 -25.76,-19.96 5.91,-10.89 14.04,-21.59 24.63,-32.09l0.01 0.01zm-29.46 58.53c15.3,0 22.94,7.17 30.59,21.5 21.16,-39.64 61.19,-18.18 61.19,7.16 0,28.66 -30.6,57.32 -61.19,85.98 -30.59,-28.66 -61.19,-57.31 -61.19,-85.98 0,-15.82 13.7,-28.66 30.6,-28.66zm-84.31 18.83c14.19,-1.14 26.75,0.18 37.94,3.55 8.32,42.19 66.87,86.94 67.7,90.9 -19.15,-1.51 -36.28,-4.57 -54.3,-12.98l2.07 0.96c-33.56,-17.03 -50.79,-42.13 -53.61,-82.42l0.2 -0.02zm49.07 80.31l0 0zm-96.46 13.55c17.29,-16.22 34.83,-25.41 52.57,-28.48 39.57,34.85 94.51,34.73 96.7,36.63 -55.23,36.34 -105.12,44.11 -149.37,-8.05l0.1 -0.1zm918.06 -19.01c-350.51,-389.2 -1162.9,-389.21 -1513.4,0 402.31,-309.18 1111.09,-309.18 1513.4,0zm-660.71 372.67c-3.6,11.5 -6.22,19.65 -18.61,32.8 34.48,40.36 98.45,31.86 113.78,-23.22 -27.31,14.45 -75.54,21.14 -95.17,-9.59l0 0.01zm739.81 -93.38c3.38,-15.54 17.56,-46.13 35.67,-46.13 15.74,0 89.3,54.71 120.22,-59.68 -28.85,19.37 -71.27,-4.67 -96.04,-25.62 -12.16,22.23 -42.97,50.7 -69.84,73.13l0 144.22c7.88,-3.48 17.28,-8.54 24.43,-11.06 28.21,-9.96 101.48,-11.94 104.77,28.82 6.59,81.61 -133.3,84.89 -191.07,45.64l33.67 -76.74c-9.19,-25.96 -33.8,-57.3 -61.94,-69.07 -37.7,-15.77 -88.11,-22.85 -129.06,-5.84 -16.88,-13.02 -40.74,-22.3 -45.66,-37.11 49.2,-35.22 127.29,71.18 162.99,-66.37 -28.94,19.48 -72.01,-4.46 -97,-25.62 -12.61,24.29 -68.15,66.54 -104.77,94.32 26.99,12.48 33.47,28.4 48.73,54.01 -41.8,36.13 -53.76,70.08 -54.54,126.78 -0.96,69.62 71.48,173.79 136.85,90.9 28.82,-36.54 29.89,-99.69 8.73,-124.57 -16.06,-18.89 -47.96,-25.67 -70.1,-5.23 -42.57,39.33 5.07,81.35 33.72,56.93 30.71,-30.55 53.38,7.24 32.24,22.26 -54.06,40.19 -111.82,-2.67 -111.82,-41.66 0,-109.28 172.3,-104.73 208.94,-19.53l-40.74 101.37c20.72,25.28 72.45,41.18 103.86,41.18 91.72,0 160.06,-73.97 160.06,-169.85 0,-80.27 -69.11,-134.01 -142.31,-95.48l0.02 -0zm-1768.6 -44.6c24.2,0 89.65,47.01 118.95,-62.54 -28.69,19.33 -70.63,-4.61 -95.07,-25.61 -11.91,21.54 -39.03,49.57 -67.91,71.77l0 194.8c5.18,29.39 10.02,51.26 14.55,65.62 36.22,107.16 132.89,81.68 132.89,-73.82 0,-53.92 5.54,-108.91 -46.16,-111.57 -62.56,-3.22 -69.14,101.39 -7.32,101.39 -6.54,-31.93 38.26,-23.86 40.97,-12.14 12.8,55.31 -73.66,104.41 -104.79,18.21 -6.65,-18.42 -23.23,-147.54 13.9,-166.11zm462.36 333c-25.91,0 -72.38,9.42 -72.38,39.17 0,33.96 56.55,37.46 77.36,11.52 17.05,-21.28 32.77,-17.49 48.37,-11.52 -16.57,84.59 -122.95,84.11 -174.47,43.03 -16.12,-12.84 -35.59,-34.84 -58.35,-60.45 17.21,-20.23 32.97,-29.11 32.97,-55.36l0 -209.15c0,-32.89 -31.91,-61.04 -66.94,-61.04 -17.67,0 -42.2,3.2 -57.16,14.28 3.7,-16.98 16.66,-43.64 36.79,-43.64 18.27,0 84.84,47.99 117.38,-62.37 -28.99,19.52 -71.97,-4.48 -97.02,-25.61 -11.52,21.75 -39.41,51 -68.87,71.77l0 145.8c23.93,-14.35 42.04,-21.53 54.32,-21.53 23.94,0 41.4,15.91 52.39,35.73l0 140.39c0,52.06 -36.93,74.81 -82.45,102.51 0,26.21 119.99,161.49 245.43,122.22 102.05,-31.95 130.86,-175.75 12.61,-175.75l0.03 0zm349.51 -388.7c-23.93,0 -51.87,-15.95 -71.79,-32.8 -12.2,22.26 -42.94,50.67 -69.84,73.13l-0.29 145.9c7.88,-3.48 17.3,-8.54 24.43,-11.06 28.69,-10.13 113.68,-14.84 104.38,42.91 -11.64,65.94 -136.07,66.41 -190.04,30.09l33.33 -76.96c-9.19,-25.96 -33.8,-57.3 -61.94,-69.07 -37.7,-15.76 -88.11,-22.85 -129.06,-5.83 -16.73,-12.7 -39.52,-22.02 -45.21,-35.91 48.37,-27.96 89.32,34.91 132.89,-6.6 12.05,-11.46 22.25,-31.96 29.35,-59.31l-0.19 0.13 0.48 -1.8c-28.93,19.48 -72,-4.46 -97,-25.62 -13.25,25.54 -74.66,71.46 -104.78,94.32l1.19 0.56 -1.47 1.12c26.65,12.32 33.3,28 48.16,53.06 -43.06,36.17 -53.25,75.58 -53.98,127.73 -0.97,69.11 71.15,174.23 136.85,90.91 27.74,-35.19 31.65,-99.63 9.02,-126.25 -27.9,-32.82 -79.49,-17.03 -86.42,23.83 -5.97,35.18 33.33,43.55 49.76,29.54 29.37,-29.22 53.43,5.02 32.52,20.58 -53.47,39.79 -120.38,-0.04 -110.61,-57.22 15.25,-89.32 171.6,-84.14 207.25,-2.75l-40.55 101.84c20.72,25.28 72.45,41.18 103.86,41.18 80.83,0 143.48,-57.44 157.24,-136.7 19.06,-109.08 -60.98,-171.37 -139.07,-130.38 4,-15.96 17.81,-44.38 35.26,-44.38 15.74,0 89.3,54.71 120.22,-59.68l0.28 -1.68c-7.12,4.78 -15.21,7.18 -24.26,7.18l0.04 -0.01zm314.57 89.08c-22,-2.21 -47.61,1.56 -66.74,10.53 3.58,-16.43 17.35,-44.25 35.19,-44.25 22.43,0 85.97,49.07 116.37,-63.2 -30.21,23.89 -67.9,-3.31 -95.06,-25.64 -8.95,17.42 -45.63,56.5 -67.99,74.49l0 131.32c35.85,-20.84 128.36,-14.4 124.1,38.86 -5.93,74.24 -161.5,99.35 -204.86,20.31 18.1,-24.35 40.22,-55.26 40.22,-78.4 0,-83.9 -92.83,-70.93 -122.16,-52.32 3.8,-17.31 15.28,-45.25 35.19,-45.25 18.46,0 86.02,47.65 115.94,-61.34 -29.35,19.71 -71.18,-5.84 -95.06,-27.69 -11.15,22.08 -41.59,49.79 -67.91,71.41l0 134.4c108.55,-40.39 125.9,29.34 54.86,53.42 -13,4.42 -30.34,8.24 -51.95,11.43 38.84,127.72 209.92,176.86 286.18,57.4 47.3,-74.09 52.02,-196.64 -36.32,-205.52l-0 0.04zm265.46 -50.79c0,-6.08 -3.76,-16.75 -28.34,-31.79 -43.33,-26.65 -65.63,-40.32 -66.94,-41.02l-93.13 78.95 2.91 13.32c72.27,-39.98 170.72,12.27 170.72,99.45 0,53.15 -100.88,63.05 -100.88,96.38 0,55.8 76.46,82.82 80.51,110.72 7.12,0 16.2,-4.82 27.17,-14.36 10.96,-9.53 7.97,-20.91 7.97,-33.83l0.02 -277.82zm-17.67 223.9l-0.23 -50.31c-37.94,5.58 -22.6,44.16 0.22,50.32l0.01 -0.01z"/>
 </g>
</svg>
